# xmcd CD database file
#
# Track frame offsets:
#	150
#	12719
#	24256
#	38026
#	51410
#	64957
#	77869
#	91229
#	104726
#	117290
#	130960
#	143312
#	157784
#	172198
#	186788
#	199905
#	213102
#	226954
#	242156
#	257143
#	271691
#	286035
#	298940
#	310807
#	323991
#	336079
#
# Disc length: 4636 seconds
#
# Revision: 1
# Processed by: cddbd v1.5.1PL0 Copyright (c) Steve Scherf et al.
# Submitted via: CDex 1.50
#
DISCID=7b121a1a
DTITLE=Billie Holiday - Complete Columbia Golden Years Recordings Vol. 1a
DYEAR=1900
DGENRE=Jazz
TTITLE0=Your Mother's Son-In-Law
TTITLE1=Riffin' the Scotch
TTITLE2=I Wished on the Moon
TTITLE3=What a Little Moonlight Can Do
TTITLE4=Miss Brown to You
TTITLE5=A Sunbonnet Blue
TTITLE6=What a Night, What a Moon, What a Girl
TTITLE7=I'm Panting the Town Red
TTITLE8=It's Too Hot For Words
TTITLE9=Twenty-Four Hours A Day
TTITLE10=Yankee Doodle Never Went to Town
TTITLE11=Eeny Meeny Miney Moo
TTITLE12=If You Were Mine
TTITLE13=These 'N' That 'N' Those
TTITLE14=You Let Me Down
TTITLE15=Spreadin' Rhythm Around
TTITLE16=Life Begins When You're In Love
TTITLE17=It's Like reaching For the Moon
TTITLE18=These Foolish Things
TTITLE19=I Cried For You
TTITLE20=Guess Who?
TTITLE21=Did I Remember?
TTITLE22=No Regrets
TTITLE23=Summertime
TTITLE24=Billie's Blues
TTITLE25=No Regrets (alt)
EXTD=
EXTT0=
EXTT1=
EXTT2=
EXTT3=
EXTT4=
EXTT5=
EXTT6=
EXTT7=
EXTT8=
EXTT9=
EXTT10=
EXTT11=
EXTT12=
EXTT13=
EXTT14=
EXTT15=
EXTT16=
EXTT17=
EXTT18=
EXTT19=
EXTT20=
EXTT21=
EXTT22=
EXTT23=
EXTT24=
EXTT25=
PLAYORDER=
